<?xml version="1.0" standalone="no"?><!DOCTYPE svg PUBLIC "-//W3C//DTD SVG 1.1//EN" "http://www.w3.org/Graphics/SVG/1.1/DTD/svg11.dtd"><svg t="1531983282009" class="icon" style="" viewBox="0 0 1024 1024" version="1.1" xmlns="http://www.w3.org/2000/svg" p-id="5005" xmlns:xlink="http://www.w3.org/1999/xlink" width="200" height="200"><defs><style type="text/css"></style></defs><path fill="#29A1F7" d="M1000.789821 122.392381l-204.8-117.711238a35.693714 35.693714 0 0 0-35.254857 0L555.983726 122.392381a35.401143 35.401143 0 0 0-17.603048 30.72v9.947429l-11.312762-6.485334a35.693714 35.693714 0 0 0-35.303619 0l-11.361524 6.631619V153.112381c0-12.580571-6.826667-24.33219-17.749333-30.72L257.804678 4.681143a35.693714 35.693714 0 0 0-35.303619 0L17.749821 122.392381A35.254857 35.254857 0 0 0 0.000488 153.112381v236.348952c0 12.678095 6.680381 24.380952 17.749333 30.72l204.751238 117.711238a35.401143 35.401143 0 0 0 35.303619 0l11.361524-6.582857v10.044953c0 12.678095 6.826667 24.380952 17.749333 30.72l7.314286 4.144762-7.314286 4.144761a35.498667 35.498667 0 0 0-17.749333 30.72v236.348953c0 12.580571 6.826667 24.33219 17.749333 30.72l204.8 117.711238a35.693714 35.693714 0 0 0 35.254857 0l204.751238-117.76a35.498667 35.498667 0 0 0 17.749334-30.72v-236.202667c0-12.629333-6.826667-24.380952-17.749334-30.72l-7.314285-4.144762 7.314285-4.096a35.498667 35.498667 0 0 0 17.749334-30.72V531.504762l11.264 6.485333a35.693714 35.693714 0 0 0 35.303619 0l204.751238-117.857524a35.59619 35.59619 0 0 0 17.846857-30.72V153.112381c0-12.678095-6.826667-24.33219-17.846857-30.72zM399.848107 255.75619v107.715048L309.394773 415.402667V307.687619L399.848107 255.75619z m15.311238 343.673905l94.159238-54.125714 94.159238 54.125714-94.159238 54.174476-94.159238-54.125714z m294.083047-60.854857l-25.112381 14.433524-157.159619-90.35581a35.693714 35.693714 0 0 0-35.303619 0L334.507154 552.96l-25.112381-14.433524v-30.378666l153.112381-88.015239a35.498667 35.498667 0 0 0 17.749334-30.72v-179.931428l29.159619-16.725333 28.964571 16.579047v180.077714c0 12.678095 6.680381 24.380952 17.603048 30.72l153.258666 88.112762v30.281143z m0-122.977524L618.789059 363.568762V255.658667l90.453333 52.077714v107.861333z" p-id="5006"></path></svg>