<?xml version="1.0" encoding="utf-8"?>
<!-- Generator: Adobe Illustrator 21.0.0, SVG Export Plug-In . SVG Version: 6.00 Build 0)  -->
<svg version="1.1" id="图层_1" xmlns="http://www.w3.org/2000/svg" xmlns:xlink="http://www.w3.org/1999/xlink" x="0px" y="0px"
	 viewBox="0 0 105.2 73" style="enable-background:new 0 0 105.2 73;" xml:space="preserve">
<style type="text/css">
	.st0{fill:#3296FA;}
</style>
<g>
	<path class="st0" d="M0.7,64.4c0,0,16.7-8.5,40.9,2.3c24.2,10.8,52.8,8,61-10s-4.5-32.4-27.9-28.8c0,0,6.9-16.2-8.2-24.9
		C51.4-5.7,34.5,6.3,34.1,19c0,0,4.1-12.8,17-9c13,3.9,10.2,21.1,7.6,24.4c0,0,17.2-7.9,24.5-0.7c7.3,7.2,1.2,22.9-13.7,26.5
		C54.6,63.9,16.4,52.3,0.7,64.4z"/>
	<g>
		<path class="st0" d="M26.8,27.7C26.8,27.7,26.7,27.7,26.8,27.7C26.7,27.7,26.7,27.8,26.8,27.7C26.7,27.8,26.8,27.8,26.8,27.7z"/>
		<path class="st0" d="M10.4,13.4c0-0.5,0.2-0.8,0.3-0.9c-0.1,0-0.1,0-0.2,0c-0.7,0-1.3,0.6-1.3,1.3c0,0.6,0.5,1.2,1.1,1.2
			C10.4,14.4,10.4,13.9,10.4,13.4z"/>
		<path class="st0" d="M11.8,13.7c0-0.6-0.5-1.1-1.1-1.2c-0.2,0.2-0.3,0.5-0.3,0.9c0,0.5-0.1,1,0,1.5c0.1,0,0.1,0,0.2,0
			C11.2,15,11.8,14.4,11.8,13.7z"/>
		<path class="st0" d="M13.6,12.5c-0.3,0-0.6,0.1-0.8,0.3c0.7,0.3,1.4,0.6,2.1,0.9C14.8,13,14.3,12.5,13.6,12.5z"/>
		<path class="st0" d="M12.3,13.7c0,0.7,0.6,1.3,1.3,1.3c0.7,0,1.3-0.6,1.3-1.3c0,0,0,0,0,0c-0.7-0.3-1.4-0.6-2.1-0.9
			C12.5,13,12.3,13.3,12.3,13.7z"/>
		<path class="st0" d="M17.9,13.7c0-0.7-0.6-1.3-1.3-1.3c-0.7,0-1.3,0.6-1.3,1.3c0,0.1,0,0.1,0,0.2c0.6,0.3,1.3,0.6,1.9,0.9
			C17.7,14.5,17.9,14.2,17.9,13.7z"/>
		<path class="st0" d="M16.7,15c0.3,0,0.5-0.1,0.7-0.2c-0.6-0.3-1.3-0.6-1.9-0.9C15.5,14.5,16,15,16.7,15z"/>
		<path class="st0" d="M9.4,17.2c0,0.6,0.5,1.1,1.1,1.1c0.2,0,0.4-0.1,0.5-0.1c-0.3-0.7-0.5-1.4-0.6-2.1C9.9,16.1,9.4,16.6,9.4,17.2
			z"/>
		<path class="st0" d="M11.7,17.2c0-0.6-0.5-1.1-1.1-1.1c0,0,0,0,0,0c0.1,0.7,0.3,1.4,0.6,2.1C11.4,18,11.7,17.6,11.7,17.2z"/>
		<ellipse class="st0" cx="13.6" cy="17.2" rx="1.1" ry="1.1"/>
		<ellipse class="st0" cx="16.7" cy="17.2" rx="1.1" ry="1.1"/>
		<ellipse class="st0" cx="19.7" cy="17.2" rx="1.1" ry="1.1"/>
		<path class="st0" d="M23.9,17.4c0-0.1,0-0.2,0-0.3c0-0.6-0.5-1.1-1.1-1.1c-0.4,0-0.8,0.2-1,0.6c0.3,0.1,0.7,0.3,1,0.4
			C23.2,17.2,23.5,17.3,23.9,17.4z"/>
		<path class="st0" d="M22.8,18.3c0.5,0,1-0.4,1.1-0.8c-0.3-0.1-0.7-0.3-1-0.4c-0.3-0.1-0.7-0.3-1-0.4c-0.1,0.2-0.1,0.3-0.1,0.5
			C21.7,17.8,22.2,18.3,22.8,18.3z"/>
		<path class="st0" d="M13.2,21.7c-0.2-0.3-0.5-0.6-0.7-0.9C12.6,21.2,12.8,21.5,13.2,21.7z"/>
		<path class="st0" d="M14.7,20.6c0-0.6-0.5-1.1-1.1-1.1c-0.6,0-1.1,0.5-1.1,1.1c0,0.1,0,0.1,0,0.2c0.2,0.3,0.5,0.6,0.7,0.9
			c0.1,0,0.3,0.1,0.4,0.1C14.2,21.7,14.7,21.2,14.7,20.6z"/>
		<ellipse class="st0" cx="16.7" cy="20.6" rx="1.1" ry="1.1"/>
		<ellipse class="st0" cx="19.7" cy="20.6" rx="1.1" ry="1.1"/>
		<ellipse class="st0" cx="22.8" cy="20.6" rx="1.1" ry="1.1"/>
		<ellipse class="st0" cx="25.8" cy="20.6" rx="1.1" ry="1.1"/>
		<ellipse class="st0" cx="28.9" cy="20.6" rx="1.1" ry="1.1"/>
		<path class="st0" d="M33.1,20.6c0-0.6-0.5-1.1-1.1-1.1c-0.4,0-0.8,0.3-1,0.6c0.7,0.3,1.4,0.5,2.1,0.8C33,20.8,33.1,20.7,33.1,20.6
			z"/>
		<path class="st0" d="M31.9,21.7c0.5,0,1-0.4,1.1-0.8c-0.7-0.3-1.4-0.5-2.1-0.8c-0.1,0.2-0.1,0.3-0.1,0.5
			C30.8,21.2,31.3,21.7,31.9,21.7z"/>
		<ellipse class="st0" cx="19.7" cy="24.1" rx="1" ry="1"/>
		<ellipse class="st0" cx="22.8" cy="24.1" rx="0.9" ry="0.9"/>
		<ellipse class="st0" cx="25.8" cy="24.1" rx="0.9" ry="0.9"/>
		<ellipse class="st0" cx="28.9" cy="24.1" rx="1" ry="1"/>
		<ellipse class="st0" cx="31.9" cy="24.1" rx="1" ry="1"/>
		<ellipse class="st0" cx="35" cy="24.1" rx="0.9" ry="0.9"/>
		<ellipse class="st0" cx="38.1" cy="24.1" rx="0.9" ry="0.9"/>
		<path class="st0" d="M42.1,24.1c0-0.5-0.4-0.9-0.9-0.9c-0.4,0-0.7,0.2-0.8,0.5c0.6,0.2,1.2,0.5,1.7,0.7
			C42,24.2,42.1,24.2,42.1,24.1z"/>
		<path class="st0" d="M41.1,25c0.4,0,0.8-0.3,0.9-0.7c-0.6-0.2-1.2-0.5-1.7-0.7c-0.1,0.1-0.1,0.3-0.1,0.5
			C40.2,24.6,40.6,25,41.1,25z"/>
		<path class="st0" d="M13.2,26.6c-0.4,0.2-0.6,0.5-0.6,0.9c0,0.5,0.4,1,1,1C13.3,27.9,13.2,27.3,13.2,26.6
			C13.2,26.6,13.2,26.6,13.2,26.6z"/>
		<path class="st0" d="M14.6,27.5c0-0.6-0.5-1-1-1c-0.1,0-0.3,0-0.4,0.1c0,0,0,0,0,0.1c0,0.6,0.1,1.2,0.4,1.9c0,0,0,0,0,0
			C14.2,28.5,14.6,28.1,14.6,27.5z"/>
		<ellipse class="st0" cx="16.7" cy="27.5" rx="0.9" ry="0.9"/>
		<path class="st0" d="M19.7,26.6c-0.1,0-0.1,0-0.2,0c0.3,0.1,0.5,0.1,0.8,0.2C20.1,26.7,19.9,26.6,19.7,26.6z"/>
		<path class="st0" d="M18.8,27.5c0,0.5,0.4,0.9,0.9,0.9s0.9-0.4,0.9-0.9c0-0.3-0.1-0.6-0.4-0.7c-0.3-0.1-0.5-0.1-0.8-0.2
			C19.1,26.7,18.8,27.1,18.8,27.5z"/>
		<path class="st0" d="M23.7,27.5c0-0.5-0.4-0.9-0.9-0.9c-0.4,0-0.7,0.2-0.8,0.6C22.5,27.3,23.1,27.4,23.7,27.5
			C23.7,27.6,23.7,27.5,23.7,27.5z"/>
		<path class="st0" d="M22.8,28.4c0.5,0,0.9-0.4,0.9-0.9c-0.6-0.1-1.2-0.3-1.8-0.4c0,0.1-0.1,0.2-0.1,0.4
			C21.9,28,22.3,28.4,22.8,28.4z"/>
		<path class="st0" d="M26.7,27.8C26.7,27.8,26.7,27.7,26.7,27.8c-0.6-0.2-1.1-0.4-1.7-0.6c-0.1,0.1-0.1,0.2-0.1,0.4
			c0,0.1,0,0.2,0.1,0.3c0.1,0,0.1,0,0.2,0.1C25.7,28,26.2,28,26.7,27.8z"/>
		<path class="st0" d="M25.8,28.4c0.4,0,0.8-0.3,0.9-0.7c-0.5,0.3-1,0.2-1.5,0.1c-0.1,0-0.1,0-0.2-0.1
			C25.1,28.2,25.4,28.4,25.8,28.4z"/>
		<path class="st0" d="M26.7,27.5c0-0.5-0.4-0.9-0.9-0.9c-0.4,0-0.7,0.2-0.8,0.5c0.6,0.2,1.1,0.4,1.7,0.6
			C26.7,27.7,26.7,27.6,26.7,27.5z"/>
		<ellipse class="st0" cx="28.9" cy="27.5" rx="0.9" ry="0.9"/>
		<ellipse class="st0" cx="31.9" cy="27.5" rx="0.9" ry="0.9"/>
		<ellipse class="st0" cx="35" cy="27.5" rx="0.9" ry="0.9"/>
		<ellipse class="st0" cx="38.1" cy="27.5" rx="0.9" ry="0.9"/>
		<ellipse class="st0" cx="41.1" cy="27.5" rx="0.9" ry="0.9"/>
		<ellipse class="st0" cx="44.2" cy="27.5" rx="0.9" ry="0.9"/>
		<ellipse class="st0" cx="16.7" cy="31" rx="0.9" ry="0.9"/>
		<ellipse class="st0" cx="19.7" cy="31" rx="0.9" ry="0.9"/>
		<ellipse class="st0" cx="22.8" cy="31" rx="0.9" ry="0.9"/>
		<ellipse class="st0" cx="25.8" cy="31" rx="0.9" ry="0.9"/>
		<ellipse class="st0" cx="28.9" cy="31" rx="0.9" ry="0.9"/>
		<ellipse class="st0" cx="31.9" cy="31" rx="0.9" ry="0.9"/>
		<ellipse class="st0" cx="35" cy="31" rx="0.9" ry="0.9"/>
		<ellipse class="st0" cx="38.1" cy="31" rx="0.9" ry="0.9"/>
		<ellipse class="st0" cx="41.1" cy="31" rx="0.9" ry="0.9"/>
		<ellipse class="st0" cx="44.2" cy="31" rx="0.9" ry="0.9"/>
		<path class="st0" d="M26.4,35.1c0.2-0.2,0.3-0.4,0.3-0.7c0,0,0-0.1,0-0.1c-0.6,0-1.2,0-1.8,0c0,0,0,0.1,0,0.1
			c0,0.4,0.2,0.7,0.6,0.8C25.8,35.2,26.1,35.2,26.4,35.1C26.4,35.1,26.4,35.1,26.4,35.1z"/>
		<path class="st0" d="M25.8,33.5c-0.5,0-0.9,0.4-0.9,0.8c0.6,0,1.2,0,1.8,0C26.7,33.9,26.3,33.5,25.8,33.5z"/>
		<path class="st0" d="M26.4,35.1C26.4,35.1,26.4,35.1,26.4,35.1c-0.3,0.1-0.6,0.1-1,0.1c0.1,0.1,0.2,0.1,0.4,0.1
			C26.1,35.4,26.3,35.3,26.4,35.1z"/>
		<path class="st0" d="M28,34.8c0.3-0.1,0.6-0.3,0.9-0.5c-0.3,0-0.7,0-1,0c0,0,0,0.1,0,0.1C28,34.6,28,34.7,28,34.8z"/>
		<path class="st0" d="M28,34.8c0.1,0.3,0.5,0.6,0.9,0.6c0.5,0,0.9-0.4,0.9-0.9c0-0.5-0.4-0.9-0.9-0.9c-0.5,0-0.9,0.4-0.9,0.8
			c0.3,0,0.7,0,1,0C28.7,34.5,28.3,34.7,28,34.8z"/>
		<ellipse class="st0" cx="31.9" cy="34.4" rx="0.9" ry="0.9"/>
		<ellipse class="st0" cx="35" cy="34.4" rx="1" ry="1"/>
		<ellipse class="st0" cx="38.1" cy="34.4" rx="1" ry="1"/>
		<ellipse class="st0" cx="41.1" cy="34.4" rx="0.9" ry="0.9"/>
		<ellipse class="st0" cx="44.2" cy="34.4" rx="0.9" ry="0.9"/>
		<path class="st0" d="M19.9,37c-0.1,0-0.1,0-0.2,0c-0.5,0-0.9,0.4-0.9,0.9c0,0.5,0.4,0.9,0.9,0.9c0.2,0,0.4-0.1,0.6-0.2
			c-0.2-0.3-0.4-0.6-0.5-0.9C19.7,37.5,19.8,37.3,19.9,37z"/>
		<path class="st0" d="M20.6,37.9c0-0.4-0.3-0.8-0.7-0.9c-0.1,0.2-0.1,0.4-0.1,0.6c0.1,0.3,0.3,0.6,0.5,0.9
			C20.5,38.4,20.6,38.2,20.6,37.9z"/>
		<ellipse class="st0" cx="22.8" cy="37.9" rx="0.9" ry="0.9"/>
		<ellipse class="st0" cx="25.8" cy="37.9" rx="0.7" ry="0.7"/>
		<ellipse class="st0" cx="28.9" cy="37.9" rx="0.9" ry="0.9"/>
		<ellipse class="st0" cx="31.9" cy="37.9" rx="0.9" ry="0.9"/>
		<ellipse class="st0" cx="35" cy="37.9" rx="0.9" ry="0.9"/>
		<ellipse class="st0" cx="38.1" cy="37.9" rx="0.9" ry="0.9"/>
		<path class="st0" d="M41.9,38.2c0,0.1-0.1,0.1-0.1,0.2C41.9,38.4,41.9,38.3,41.9,38.2z"/>
		<path class="st0" d="M41.1,37c-0.5,0-0.9,0.4-0.9,0.9c0,0.5,0.4,0.9,0.9,0.9c0.3,0,0.5-0.1,0.7-0.3c0-0.1,0.1-0.1,0.1-0.2
			c0-0.1,0.1-0.2,0.1-0.3C42,37.4,41.6,37,41.1,37z"/>
		<path class="st0" d="M32.2,37c-0.1,0-0.1,0-0.2,0c-0.5,0-0.9,0.4-0.9,0.9c0,0.5,0.4,0.9,0.9,0.9c0.2,0,0.4-0.1,0.6-0.2
			c-0.2-0.3-0.4-0.6-0.5-0.9C32,37.5,32.1,37.3,32.2,37z"/>
		<path class="st0" d="M32.9,37.9c0-0.4-0.3-0.8-0.7-0.9c-0.1,0.2-0.1,0.4-0.1,0.6c0.1,0.3,0.3,0.6,0.5,0.9
			C32.7,38.4,32.9,38.2,32.9,37.9z"/>
		<ellipse class="st0" cx="35" cy="37.9" rx="0.9" ry="0.9"/>
		<ellipse class="st0" cx="38.1" cy="37.9" rx="0.7" ry="0.7"/>
		<ellipse class="st0" cx="41.2" cy="37.9" rx="0.9" ry="0.9"/>
		<ellipse class="st0" cx="44.2" cy="37.9" rx="0.9" ry="0.9"/>
		<path class="st0" d="M21.9,41.3c0,0.5,0.4,0.9,0.9,0.9c0.5,0,0.9-0.4,0.9-0.9c0,0,0,0,0,0c-0.4-0.2-0.9-0.5-1.3-0.7
			C22.1,40.7,21.9,41,21.9,41.3z"/>
		<path class="st0" d="M22.8,40.5c-0.1,0-0.3,0-0.4,0.1c0.4,0.3,0.8,0.5,1.3,0.7C23.6,40.8,23.2,40.5,22.8,40.5z"/>
		<path class="st0" d="M25.8,42.2c0.1,0,0.2,0,0.3-0.1c-0.3-0.1-0.7-0.2-1-0.3C25.3,42.1,25.6,42.2,25.8,42.2z"/>
		<path class="st0" d="M26.7,41.3c0-0.5-0.4-0.9-0.9-0.9c-0.5,0-0.9,0.4-0.9,0.9c0,0.2,0.1,0.4,0.2,0.6c0.3,0.1,0.7,0.2,1,0.3
			C26.5,42,26.7,41.7,26.7,41.3z"/>
		<path class="st0" d="M28.8,42.2C28.8,42.2,28.9,42.2,28.8,42.2c0.2,0,0.4,0,0.6-0.1c-0.1,0-0.3,0.1-0.4,0.1
			C28.9,42.2,28.9,42.2,28.8,42.2z"/>
		<path class="st0" d="M29.8,41.3c0-0.5-0.4-0.9-0.9-0.9c-0.5,0-0.9,0.4-0.9,0.9c0,0.5,0.4,0.8,0.8,0.9c0,0,0.1,0,0.1,0
			c0.1,0,0.3-0.1,0.4-0.1C29.6,41.9,29.8,41.6,29.8,41.3z"/>
		<path class="st0" d="M31.9,42.2c0.5,0,0.9-0.4,0.9-0.9c0-0.1,0-0.1,0-0.2c-0.6,0.2-1.2,0.3-1.7,0.5C31.2,42,31.5,42.2,31.9,42.2z"
			/>
		<path class="st0" d="M31.9,40.5c-0.5,0-0.9,0.4-0.9,0.9c0,0.1,0,0.2,0,0.3c0.5-0.1,1.1-0.3,1.7-0.5C32.7,40.7,32.4,40.5,31.9,40.5
			z"/>
		<ellipse class="st0" cx="35" cy="41.3" rx="0.7" ry="0.7"/>
		<ellipse class="st0" cx="38.1" cy="41.3" rx="0.7" ry="0.7"/>
		<ellipse class="st0" cx="41.1" cy="41.3" rx="0.7" ry="0.7"/>
		<ellipse class="st0" cx="38.1" cy="41.3" rx="0.7" ry="0.7"/>
		<ellipse class="st0" cx="41.2" cy="41.3" rx="0.7" ry="0.7"/>
		<ellipse class="st0" cx="44.2" cy="41.3" rx="0.7" ry="0.7"/>
		<ellipse class="st0" cx="35" cy="44.8" rx="0.6" ry="0.6"/>
		<ellipse class="st0" cx="38.1" cy="44.8" rx="0.7" ry="0.7"/>
		<ellipse class="st0" cx="41.1" cy="44.8" rx="0.9" ry="0.9"/>
		<ellipse class="st0" cx="44.2" cy="44.8" rx="0.9" ry="0.9"/>
		<ellipse class="st0" cx="35" cy="48.2" rx="0.4" ry="0.4"/>
		<ellipse class="st0" cx="38.1" cy="48.2" rx="0.4" ry="0.4"/>
		<path class="st0" d="M41.1,49c0.4,0,0.8-0.3,0.8-0.8c0-0.3-0.1-0.5-0.3-0.6c-0.3,0.4-0.6,0.8-0.9,1.2C40.8,48.9,40.9,49,41.1,49z"
			/>
		<path class="st0" d="M40.4,48.2c0,0.2,0.1,0.4,0.3,0.6c0.3-0.4,0.6-0.8,0.9-1.2c-0.1-0.1-0.3-0.1-0.4-0.1
			C40.7,47.5,40.4,47.8,40.4,48.2z"/>
		<path class="st0" d="M38.5,51.7C38.5,51.7,38.5,51.7,38.5,51.7c-0.1,0.1-0.2,0.3-0.3,0.4C38.3,52.1,38.5,51.9,38.5,51.7z"/>
		<path class="st0" d="M38.1,51.3c-0.2,0-0.4,0.2-0.4,0.4c0,0.2,0.2,0.4,0.4,0.4c0,0,0.1,0,0.1,0c0.1-0.1,0.2-0.3,0.3-0.4
			C38.5,51.4,38.3,51.3,38.1,51.3z"/>
		<ellipse class="st0" cx="35" cy="55.1" rx="0.4" ry="0.4"/>
		<ellipse class="st0" cx="35" cy="51.7" rx="0.4" ry="0.4"/>
	</g>
	<path class="st0" d="M42.5,68.5c-0.2,0-14.7-7.1-29.3-5.5c-14.6,1.6-13.9,5-12.5,7c1.4,2,17,3.8,19,0.4c2.1-3.3-8.8-4.8-11.6-3.3
		c-2.8,1.5,3.5,3,4.3,2c0.8-1,3.1-0.8,3.2-0.4c0.1,0.4-0.4,2.8-7.4,1.2c-7-1.6-5.4-4.3,4.4-5.5C22.4,63.3,42.5,68.5,42.5,68.5z"/>
</g>
</svg>
